<svg width="56" height="57" viewBox="0 0 56 57" fill="none" xmlns="http://www.w3.org/2000/svg">
<path d="M32.0768 30.8237L26.8864 21.8336C26.6771 21.471 26.567 21.0598 26.567 20.6411V11.0391H23.6133V20.7091C23.6133 21.1228 23.5045 21.5291 23.2976 21.8873L18.4316 30.3154L19.2052 32.1283C20.2826 32.797 21.6458 32.797 22.7231 32.1283C23.8003 31.4597 25.1636 31.4596 26.2409 32.1283L26.2411 32.1284C27.3184 32.797 28.6816 32.797 29.759 32.1283L29.7592 32.1282C30.6381 31.5826 31.7074 31.4826 32.6565 31.8273L32.0768 30.8237Z" fill="#E5E5E5"/>
<path d="M26.1107 21.8873L31.738 31.6342C32.2743 31.6694 32.804 31.8338 33.2781 32.1281L33.2789 32.1286C34.3561 32.7971 35.7192 32.7971 36.7964 32.1286L37.5708 30.3154L32.7048 21.8874C32.498 21.5292 32.3891 21.1228 32.3891 20.7091V11.0391H25.7949V20.7091C25.7949 21.1227 25.9039 21.5291 26.1107 21.8873Z" fill="#D6D6D6"/>
<path d="M27.7833 13.7923V11.1803C27.7833 10.6477 27.4438 10.1955 26.9699 10.0249H23.0839C22.4248 10.0249 21.8906 10.5592 21.8906 11.2182V13.7544C21.8906 14.4134 22.4249 14.9477 23.0839 14.9477H26.9699C27.4438 14.7771 27.7833 14.325 27.7833 13.7923Z" fill="#E5E5E5"/>
<path d="M32.9165 10.0248H26.3223C26.9814 10.0248 27.5155 10.5591 27.5155 11.2181V13.7542C27.5155 14.4132 26.9812 14.9475 26.3223 14.9475H32.9165C33.5756 14.9475 34.1098 14.4132 34.1098 13.7542V11.2182C34.1098 10.5591 33.5756 10.0248 32.9165 10.0248Z" fill="#C6C6C6"/>
<path d="M36.9492 39.2634L32.1214 30.9014C31.2901 30.6511 30.3773 30.7603 29.6184 31.2313L29.6181 31.2314C28.6269 31.8467 27.3724 31.8468 26.3811 31.2314L26.3809 31.2313C25.3896 30.616 24.1351 30.6161 23.1438 31.2313C22.1525 31.8467 20.898 31.8467 19.9067 31.2313L18.4311 30.3154L13.3544 39.1087C12.4474 40.6797 13.5811 42.6434 15.3951 42.6434H35.8426C37.0798 42.1027 37.6934 40.5525 36.9492 39.2634Z" fill="#4CC68F"/>
<path d="M34.0121 42.6434H40.6064C42.4203 42.6434 43.5541 40.6797 42.6471 39.1087L37.5702 30.3154L36.0939 31.2317C35.1026 31.8468 33.8484 31.8468 32.8571 31.2317L32.8564 31.2312C32.3608 30.9237 31.7996 30.7699 31.2383 30.7699L36.0528 39.1087C36.9599 40.6797 35.8262 42.6434 34.0121 42.6434Z" fill="#3FAA7A"/>
<path d="M47.6206 44.5112C51.1886 40.2884 53.3409 34.8305 53.3409 28.8692C53.3409 20.6804 49.2817 13.4401 43.0664 9.04888C39.4265 5.33035 34.7711 2.61107 29.5486 1.33849C28.0365 0.970007 26.4707 0.873757 24.9232 1.03837L24.9007 1.04077C10.851 2.54096 0 14.4212 0 28.8692C0 43.3145 10.8546 55.194 24.9007 56.6976C24.9071 56.6982 24.9135 56.6989 24.92 56.6996C26.2154 56.8374 27.5278 56.7415 28.7856 56.4024C40.3972 53.2712 47.6206 44.5112 47.6206 44.5112ZM28 4.90674C41.234 4.90674 51.9624 15.6351 51.9624 28.8692C51.9624 34.7594 49.8358 40.1521 46.3104 44.3246L12.5445 10.5588C16.7171 7.03321 22.1098 4.90674 28 4.90674ZM4.03758 28.8692C4.03758 22.9789 6.16416 17.5863 9.68964 13.4137L43.4555 47.1796C39.2829 50.7051 33.8903 52.8317 28 52.8317C14.766 52.8316 4.03758 42.1033 4.03758 28.8692Z" fill="#FED05C"/>
<path d="M27.9998 0.869263C26.952 0.869263 25.9183 0.928763 24.9005 1.04087C31.4993 1.76767 37.4068 4.78686 41.8103 9.28545C47.9515 13.6242 51.9622 20.7781 51.9622 28.8693C51.9622 34.7595 49.8356 40.1522 46.3101 44.3247L45.6039 43.6184C44.8825 44.7799 44.0788 45.8847 43.2003 46.9248L43.4551 47.1796C42.9274 47.6255 42.3798 48.0489 41.8145 48.4486C37.4105 52.9496 31.5013 55.9706 24.9004 56.6975C25.9183 56.8098 26.952 56.8693 27.9998 56.8693C43.4637 56.8693 55.9998 44.3332 55.9998 28.8693C55.9998 13.4053 43.4637 0.869263 27.9998 0.869263Z" fill="#F7B54C"/>
</svg>
