<svg width="56" height="57" viewBox="0 0 56 57" fill="none" xmlns="http://www.w3.org/2000/svg">
<path d="M42.9411 52.8372L37.4405 51.3286C37.0236 51.2145 36.5806 51.3935 36.3717 51.7622L33.6175 56.6273C33.5071 56.8225 33.2146 56.8063 33.1253 56.6021L30.6503 50.8573L24.6914 37.0265L29.1047 26.7854L32.8552 28.3098L36.6101 37.0256L43.2679 52.4787C43.3559 52.6842 43.1606 52.8974 42.9411 52.8372Z" fill="#FED05C"/>
<path d="M36.6101 37.0256L30.6503 50.8573L24.6914 37.0265L29.1047 26.7854L32.8548 28.3098L36.6101 37.0256Z" fill="#F7B54C"/>
<path d="M22.3828 56.6274L19.6281 51.7627C19.4196 51.394 18.9767 51.2141 18.5601 51.3286L13.0591 52.8373C12.8392 52.8975 12.6443 52.6839 12.7327 52.4788L24.3268 25.5682L34.4686 29.6912L22.8745 56.6017C22.7861 56.8068 22.4932 56.8222 22.3828 56.6274Z" fill="#F7B54C"/>
<path d="M30.473 1.62782L33.8571 4.33742C34.4553 4.81637 35.1871 5.11074 35.9582 5.18294L40.3236 5.59096C42.177 5.76443 43.6439 7.18929 43.8225 8.98971L44.2429 13.2301C44.3173 13.9795 44.6203 14.6905 45.1134 15.2711L47.9028 18.5583C49.0873 19.9541 49.0873 21.969 47.9028 23.3649L45.1134 26.6521C44.6203 27.2327 44.3173 27.9437 44.2429 28.693L43.8225 32.9335C43.6439 34.7339 42.177 36.1588 40.3236 36.3322L35.9582 36.7407C35.1867 36.8129 34.4553 37.1072 33.8571 37.5858L30.473 40.2958C29.0365 41.4459 26.9618 41.4459 25.5248 40.2958L22.1411 37.5858C21.543 37.1072 20.8111 36.8129 20.0396 36.7407L15.6747 36.3322C13.8212 36.1588 12.3539 34.7339 12.1758 32.9335L11.7553 28.693C11.6809 27.9437 11.3779 27.2327 10.8848 26.6521L8.09539 23.3649C6.91091 21.9695 6.91091 19.9541 8.09539 18.5583L10.8848 15.2715C11.3779 14.6905 11.6809 13.9795 11.7553 13.2301L12.1753 8.98971C12.3539 7.18972 13.8207 5.76443 15.6742 5.59139L20.0396 5.18294C20.8111 5.11074 21.543 4.81637 22.1407 4.33742L25.5248 1.62782C26.9618 0.477249 29.0365 0.477249 30.473 1.62782Z" fill="#FED05C"/>
<path d="M40.8817 20.9617C40.8817 27.8724 35.1146 33.4745 28.0002 33.4745C20.8863 33.4745 15.1191 27.8724 15.1191 20.9617C15.1191 14.0514 20.8863 8.44934 28.0002 8.44934C35.1146 8.44934 40.8817 14.0514 40.8817 20.9617Z" fill="#4CC68F"/>
<path d="M26.303 26.604C25.8811 26.604 25.4766 26.4413 25.1783 26.1515L21.802 22.8714C21.1806 22.2682 21.1806 21.2897 21.802 20.6861C22.423 20.0825 23.4303 20.0825 24.0517 20.6861L26.3034 22.8733L32.5489 16.8062C33.1702 16.203 34.1776 16.203 34.7986 16.8062C35.42 17.4098 35.42 18.3883 34.7986 18.9919L27.428 26.1515C27.1297 26.4413 26.7252 26.604 26.303 26.604Z" fill="white"/>
</svg>
