<svg width="56" height="57" viewBox="0 0 56 57" fill="none" xmlns="http://www.w3.org/2000/svg">
<g clip-path="url(#clip0_1_3284)">
<path d="M0.900339 31.2043C0.395847 29.2629 0.15659 27.2887 0.110105 25.2844C0.0991677 24.8127 0.207175 24.6747 0.70073 24.6774C5.4271 24.6979 10.1548 24.6897 14.8812 24.6897C18.79 24.6897 22.6988 24.6897 26.6076 24.6897C26.8441 24.6897 27.0792 24.676 27.3158 24.6678C27.5195 24.527 27.7492 24.4942 27.9898 24.4942C31.1316 24.4914 34.272 24.4901 37.4138 24.4969C37.6298 24.4969 37.854 24.4928 38.0249 24.6664C38.2792 24.6747 38.5322 24.6883 38.7865 24.6883C44.2908 24.6883 49.7951 24.6883 55.3007 24.6911C55.5318 24.6911 55.7751 24.6336 55.9912 24.7772V24.9959C55.9023 25.2147 55.9023 25.4321 55.9912 25.6508V26.7418C55.8517 28.0297 55.7874 29.3258 55.4812 30.5905C55.4101 30.8817 55.4019 31.2166 55.0382 31.3397C54.7525 31.4149 54.4599 31.393 54.1701 31.393C36.7617 31.393 19.3546 31.3944 1.94624 31.3903C1.59214 31.3903 1.21206 31.4791 0.903074 31.203L0.900339 31.2043Z" fill="#F7B54C"/>
<path d="M39.5168 56.7626C39.5127 56.7941 39.5113 56.8269 39.5113 56.8583H15.2861C15.2834 56.8296 15.2807 56.7995 15.2793 56.7708C15.5609 56.4837 15.926 56.5753 16.2582 56.5753C22.8111 56.5698 29.3654 56.5712 35.9184 56.5712C36.8617 56.5712 37.8064 56.5657 38.7498 56.5753C39.0164 56.578 39.3021 56.5343 39.5168 56.764V56.7626Z" fill="#FCE9CB"/>
<path d="M55.1111 31.2235C53.7891 36.7141 51.0465 41.3803 46.9189 45.2207C44.0889 47.854 40.8213 49.7872 37.1709 51.0668C37.0041 51.1256 36.8127 51.1325 36.6869 51.2842C36.5488 51.4825 36.3232 51.5125 36.1168 51.5713C34.1016 52.1456 32.0562 52.5161 29.9604 52.6774C26.2061 52.9672 22.5693 52.4409 19.0023 51.2979C18.7645 51.2213 18.5006 51.1831 18.3338 50.9616C17.8744 50.6239 17.3166 50.5077 16.8094 50.2766C9.18047 46.8067 4.04941 41.0959 1.41074 33.1458C1.2002 32.5114 0.999219 31.8702 0.899414 31.2043C1.15371 31.2084 1.40801 31.218 1.6623 31.218C19.243 31.218 36.8223 31.218 54.4029 31.218C54.6395 31.218 54.876 31.2221 55.1125 31.2235H55.1111Z" fill="#FED05C"/>
<path d="M28.8055 23.0273C32.6268 18.7412 36.448 14.455 40.268 10.1675C42.2395 7.95543 44.2082 5.74332 46.1783 3.52984C47.1395 2.45113 48.2496 1.59254 49.6742 1.22887C51.6676 0.718905 53.6664 1.45445 54.9488 3.21402C56.2121 4.94898 56.1287 6.76461 55.1375 8.59254C54.6727 9.45113 54.0123 10.1484 53.2932 10.7978C48.925 14.7476 44.5582 18.6988 40.19 22.6486C40.0027 22.8181 39.8141 22.9863 39.6268 23.1545C39.4121 23.1818 39.1975 23.2105 38.9787 23.2105C35.8793 23.205 32.7813 23.2105 29.6818 23.2037C29.3811 23.2037 29.0584 23.2679 28.8027 23.0259L28.8055 23.0273Z" fill="#AAAAAA"/>
<path d="M39.5175 56.7625C36.6123 56.7584 33.707 56.7516 30.8031 56.7502C25.8457 56.7475 20.8896 56.7502 15.9322 56.7502C15.7148 56.7502 15.4974 56.7639 15.28 56.7708C14.7605 56.7133 14.4009 56.4481 14.2492 55.9436C14.1029 55.4583 14.2779 55.0604 14.6224 54.7159C15.466 53.8723 16.3068 53.0233 17.1476 52.177C18.1457 52.4422 19.0986 52.851 20.0994 53.1163C21.9984 53.6208 23.9207 53.9475 25.8839 54.0979C29.9636 54.411 33.9148 53.8463 37.7703 52.5161C37.8045 52.5038 37.8414 52.501 37.8769 52.4942C38.6343 53.2502 39.4205 53.9803 40.1437 54.7692C40.8546 55.5444 40.5347 56.4918 39.5189 56.7625H39.5175Z" fill="#F7B54C"/>
<path d="M16.3799 22.3684C12.9988 22.609 10.0676 21.6314 7.72695 19.1185C6.23125 17.5121 5.4164 15.5844 5.1457 13.4133C5.10332 13.0674 5.22773 12.9922 5.55449 12.9758C9.54394 12.783 13.6496 15.3766 15.1891 19.057C15.535 19.8814 15.8098 20.7195 15.9574 21.6014C16.0299 21.7094 16.1611 21.6547 16.2541 21.7094C16.4797 21.8953 16.7477 22.0717 16.3799 22.3697V22.3684Z" fill="#4CC68F"/>
<path d="M16.3786 22.3683C16.5905 22.0484 16.302 21.9021 16.1516 21.7066C16.075 21.6041 16.0983 21.4974 16.142 21.3908C17.0321 16.9324 20.4309 13.6839 24.929 13.0263C25.4813 12.9457 26.0541 12.999 26.6161 12.9826C26.8772 12.9744 26.951 13.0591 26.9127 13.3367C26.3918 17.2482 24.3137 19.999 20.7344 21.6123C19.3563 22.233 17.8934 22.4763 16.3786 22.3683Z" fill="#4CC68F"/>
<path d="M16.146 18.4923C15.8015 17.9455 15.4898 17.4423 15.1685 16.9447C14.5929 16.0533 13.8833 15.274 13.0931 14.5699C12.8525 14.3552 12.7636 14.131 12.7841 13.8125C12.9577 11.0439 13.9653 8.63629 15.8398 6.58551C16.0941 6.30797 16.2308 6.33258 16.47 6.59508C18.3691 8.67867 19.3589 11.1355 19.5202 13.9396C19.5325 14.157 19.4833 14.3238 19.3083 14.4646C18.0204 15.4927 17.088 16.8025 16.3224 18.2435C16.2827 18.3187 16.2253 18.383 16.146 18.4937V18.4923Z" fill="#4CC68F"/>
<path d="M37.8764 52.4943C37.8477 52.7732 37.592 52.7499 37.4225 52.806C35.4455 53.4677 33.4221 53.9066 31.348 54.1445C29.8127 54.3208 28.2746 54.4179 26.7393 54.3331C25.0836 54.2429 23.432 54.0583 21.8051 53.6974C20.3176 53.3665 18.8602 52.9482 17.441 52.3958C17.3166 52.348 17.2059 52.3042 17.1484 52.1784C17.5449 51.7738 17.9414 51.3677 18.3365 50.963C19.4535 51.2679 20.5623 51.6056 21.6875 51.8722C23.1121 52.2099 24.5518 52.482 26.0256 52.497C26.3701 52.5011 26.6996 52.6036 27.0496 52.6118C30.2242 52.6761 33.3305 52.2523 36.3711 51.3417C36.4736 51.3103 36.5844 51.3048 36.691 51.2857C37.0861 51.689 37.4812 52.0923 37.8764 52.4956V52.4943Z" fill="#F3A940"/>
<path d="M28.8041 23.0273C32.2084 23.0273 35.6127 23.0273 39.017 23.0355C39.2234 23.0355 39.4572 22.9494 39.6268 23.1558C39.0922 23.659 38.5562 24.1635 38.0217 24.6666C34.452 24.6666 30.8822 24.6666 27.3125 24.6666C27.7855 24.0978 28.2613 23.5318 28.8041 23.0273Z" fill="#919191"/>
<path d="M16.1441 21.3907C16.1468 21.496 16.1509 21.6013 16.1537 21.7066C16.0197 21.7982 15.924 21.8187 15.9581 21.5999C16.0197 21.5302 16.0812 21.4605 16.1427 21.3907H16.1441Z" fill="#BEF1E9"/>
</g>
<defs>
<clipPath id="clip0_1_3284">
<rect width="56" height="56" fill="white" transform="translate(0 0.869263)"/>
</clipPath>
</defs>
</svg>
