<svg width="51" height="57" viewBox="0 0 51 57" fill="none" xmlns="http://www.w3.org/2000/svg">
<g clip-path="url(#clip0_1_3254)">
<path d="M10.6535 1.50147C10.8207 1.2903 10.8087 1.08044 10.6535 0.869263V1.50147Z" fill="#FE8C7A"/>
<path d="M47.9674 6.20003C46.1867 6.70289 44.6567 7.62019 43.3616 8.93608C42.6331 9.67652 41.8701 10.384 41.1615 11.1429C40.8762 11.4491 40.6108 11.519 40.2141 11.4385C39.2441 11.2432 38.2661 11.0901 37.2921 10.9211C37.243 10.7575 37.389 10.6809 37.4208 10.5621C37.5283 10.1583 37.4673 9.8019 37.0997 9.56037C36.76 9.33732 36.4123 9.36767 36.0859 9.60789C36.0328 9.64616 35.9864 9.695 35.9386 9.73987C35.3548 10.2828 34.6594 10.4737 33.8526 10.3127C33.8487 10.1398 34.0159 10.0778 34.0915 9.95633C34.3317 9.57225 34.2799 9.12614 33.9508 8.84105C33.6509 8.58104 33.1839 8.57444 32.8561 8.82785C32.7778 8.88857 32.6929 8.9506 32.6411 9.03111C32.0599 9.93653 31.2571 10.017 30.2991 9.72799C29.7656 9.56697 29.1977 9.5155 28.643 9.43762C28.0764 9.35843 27.673 9.59205 27.4899 10.0672C27.3028 10.5529 27.4647 11.0294 27.9636 11.3316C28.6112 11.7249 29.268 12.1077 29.9368 12.4654C30.2301 12.6224 30.3256 12.7254 30.0735 13.0237C29.7617 13.3959 29.5228 13.8261 29.3848 14.3712C30.0231 14.1495 30.5499 13.8631 31.001 13.4526C31.1921 13.2797 31.3434 13.2573 31.5637 13.3985C31.9524 13.6466 32.5363 13.7786 32.7088 14.1231C32.8773 14.4597 32.2762 14.7949 32.1223 15.1948C32.04 15.4073 31.9365 15.6106 31.7866 15.9432C32.5124 15.7135 33.0538 15.3968 33.5156 14.9612C33.7505 14.7395 33.915 14.7276 34.1857 14.8979C34.7417 15.2503 35.3203 15.571 35.9001 15.8838C36.1456 16.0158 36.1668 16.1095 35.9598 16.3035C35.4795 16.7549 35.0177 17.2274 34.5493 17.6907C34.1685 17.8226 33.9707 18.1711 33.6854 18.4153C33.3736 18.6819 33.1454 19.0422 32.7645 19.2309C32.3771 19.3167 32.0135 19.1742 31.6406 19.1135C30.6972 18.9445 29.7709 18.6964 28.8328 18.5063C28.2104 18.3321 27.6173 18.3638 27.0786 18.7611C26.5226 19.219 26.3978 19.8117 26.5319 20.4861C26.7521 21.0787 27.1714 21.4588 27.7633 21.6859C28.5037 21.9696 29.2242 22.3062 29.97 22.5754C30.3641 22.718 30.5446 22.9635 30.4238 23.366C30.2553 23.9309 30.5525 24.5064 30.3521 25.0766C30.2778 25.2864 30.4915 25.3511 30.6733 25.3168C31.3129 25.1953 31.9617 25.3603 32.6013 25.2442C32.8747 25.1953 32.9835 25.3814 33.0658 25.5926C33.3418 26.2987 33.6509 26.9903 33.9362 27.6912C34.0915 28.0726 34.2574 28.4501 34.5347 28.7655C35.2712 29.2935 35.8882 29.3436 36.5464 28.9318C37.1833 28.5332 37.4288 27.9024 37.2576 27.0471C37.0559 26.0361 36.821 25.0317 36.5862 24.0286C36.5835 23.9969 36.5835 23.9626 36.5702 23.9336C36.2624 23.267 36.4681 22.8024 37.036 22.3392C37.5615 21.9102 37.9994 21.3664 38.4877 20.886C38.7836 20.5759 39.0981 20.2842 39.3927 19.9727C39.5758 19.78 39.7072 19.7681 39.8425 20.0189C40.1172 20.5257 40.4065 21.0246 40.701 21.5196C40.847 21.765 40.8404 21.9723 40.6267 22.1821C40.4012 22.4025 40.2539 22.6837 40.0946 22.9529C39.9805 23.1298 39.8651 23.304 39.8093 23.5099C39.7762 23.6326 39.7191 23.7659 39.8332 23.8728C39.9473 23.9811 40.076 23.9164 40.1955 23.8702C40.3162 23.824 40.4303 23.762 40.5445 23.7039C40.8072 23.568 41.0593 23.4122 41.2889 23.2261C41.4985 23.0559 41.6419 23.1087 41.756 23.3317C41.7865 23.3898 41.7387 23.3238 41.7799 23.3739C42.2828 23.9969 42.4659 24.6133 41.7653 25.231C41.683 25.3036 41.6445 25.425 41.5928 25.5266C41.5609 25.5847 41.5277 25.6414 41.5038 25.7035C41.4269 25.9081 41.1973 26.1549 41.4388 26.3225C41.6525 26.4703 41.8608 26.2525 42.0187 26.0757C42.3664 25.8553 42.714 25.6362 43.0882 25.3986C43.5221 26.1456 43.9614 26.8966 44.3966 27.6503C44.6554 28.0964 45.0296 28.3128 45.5511 28.2231C45.9929 28.1465 46.2384 27.8588 46.3512 27.4444C46.4043 27.249 46.3658 27.055 46.33 26.8597C46.1787 26.0361 46.0434 25.2085 45.8868 24.3863C45.8324 24.1025 45.8788 23.89 46.1124 23.6933C46.3764 23.4716 46.6139 23.2156 46.8515 22.9648C47.2416 22.553 47.2655 22.091 46.9258 21.7334C46.598 21.3902 46.115 21.3902 45.6837 21.736C45.6333 21.7769 45.5829 21.8178 45.5298 21.8614C45.1264 21.022 45.1901 20.6273 45.8111 20.0044C45.9624 19.8526 46.1243 19.7048 46.2397 19.5292C46.4507 19.2059 46.4282 18.8693 46.18 18.5697C45.9359 18.2754 45.5962 18.1262 45.2551 18.307C44.8438 18.5235 44.8239 18.3427 44.7735 18.0074C44.6434 17.1469 44.4802 16.2916 44.313 15.4364C44.2506 15.1183 44.3263 14.8926 44.5638 14.6537C45.624 13.5925 46.7533 12.596 47.714 11.4412C48.5659 10.417 49.2187 9.27528 49.5067 7.96599C49.6474 7.32718 49.7535 6.65142 49.0635 6.19739H47.9714L47.9674 6.20003Z" fill="#4CC68F"/>
<path d="M36.4603 23.964C36.6819 24.9842 36.9048 26.0045 37.1238 27.0261C37.3547 28.1083 36.8624 28.8897 35.8433 29.0665C35.3682 29.1484 34.9861 28.92 34.6026 28.6957C34.4022 28.6138 34.2496 28.7379 34.097 28.825C30.5607 30.8325 27.1292 32.9957 23.9538 35.5404C23.7096 35.7358 23.4641 35.9311 23.2651 36.1766C22.9493 36.7586 22.5101 37.2523 22.0775 37.7472C21.7577 38.1141 21.3278 38.2699 20.8487 38.3068C20.4413 38.4876 20.1799 38.84 19.8907 39.1476C18.2505 40.8911 16.7365 42.731 15.6006 44.8507C15.444 45.1423 15.314 45.4419 15.2742 45.7746C15.2914 46.4728 15.0951 47.1327 14.9265 47.7992C14.6903 48.735 14.4634 49.6721 14.2246 50.6065C14.1702 51.2374 14.2936 51.8498 14.482 52.4411C14.8774 53.6818 15.3896 54.867 16.3676 55.7869C17.6919 56.274 19.0746 56.5049 20.4692 56.6501C23.2425 56.9379 25.9734 56.6844 28.6525 55.9057C31.6806 55.0254 34.3836 53.559 36.7536 51.4869C40.2408 48.4393 42.5019 44.6619 43.5436 40.1665C44.1155 37.6944 44.2363 35.1959 43.8886 32.6803C43.6484 32.4203 43.5542 32.6169 43.4069 32.803C42.6771 33.7217 42.3971 34.8911 41.654 35.8097C41.3143 36.2294 41.4497 36.793 41.5651 37.2892C41.6633 37.7169 41.8889 38.1181 41.6527 38.5734C41.581 38.7107 41.6845 38.8612 41.7801 38.98C42.0322 39.2954 42.0415 39.6386 41.8013 39.9355C41.2161 40.6641 40.9627 41.5339 40.684 42.3944C40.5407 42.8392 40.347 43.2576 40.0179 43.5942C39.2283 44.4019 38.8077 45.372 38.6073 46.4741C38.2212 48.5951 37.2207 50.4006 35.6549 51.8947C35.4624 52.0782 35.2501 52.2339 35.0431 52.3976C34.9383 52.4807 34.8242 52.5454 34.7021 52.5955C35.2568 52.2299 35.7106 51.7852 35.9043 51.1266C36.1087 50.431 35.964 50.0694 35.3205 49.7222C35.2037 49.6602 35.1413 49.5863 35.1307 49.4609C35.1227 49.3777 35.1161 49.2695 35.0418 49.2392C34.4274 48.9871 34.4341 48.3747 34.2655 47.8837C34.04 47.2251 33.7056 46.7618 32.9572 46.6391C32.2525 46.5229 32.0416 45.9501 31.9367 45.335C31.8598 44.881 31.8412 44.4177 31.7151 43.9729C31.544 43.3671 31.2905 42.8009 30.9375 42.273C30.6111 41.782 30.6748 41.5444 31.1605 41.2013C31.5095 40.9544 31.889 40.7525 32.1199 40.3632C32.2618 40.1243 32.5485 40.1388 32.7913 40.1097C33.2385 40.0556 33.6843 40.0213 33.955 39.5792C34.0134 39.4841 34.1408 39.3997 34.2456 39.4063C34.73 39.4366 35.1798 39.1172 35.6721 39.273C35.7783 39.3073 35.8711 39.302 35.9123 39.1806C35.9587 39.042 35.9388 38.8942 35.8128 38.8282C35.3205 38.5721 35.2886 38.1498 35.3762 37.6878C35.4757 37.1638 35.8645 36.9276 36.3396 36.8075C37.0773 36.6187 37.632 36.2439 38.0341 35.5602C38.4481 34.8567 39.2403 34.6878 39.99 34.5228C40.1227 34.4938 40.2474 34.5677 40.3576 34.6442C40.4518 34.7102 40.5327 34.7987 40.6322 34.8554C41.6407 35.4282 42.0468 35.192 42.1211 34.1665C42.1503 33.7547 42.1383 33.3521 42.4263 33.0023C42.5683 32.8294 42.5245 32.5958 42.4873 32.3807C42.4342 32.0758 42.344 31.7762 42.3281 31.4198C42.5696 31.499 42.5961 31.6891 42.6678 31.8382C42.7249 31.957 42.766 32.0837 42.8496 32.188C42.969 32.3332 43.119 32.4665 43.314 32.4044C43.5462 32.3305 43.4985 32.118 43.4626 31.9425C43.2623 30.95 42.9571 29.972 42.3692 29.1563C42.0866 28.763 41.6208 28.371 41.0529 28.3063C40.5141 28.2456 40.124 27.9948 39.8467 27.5434C39.787 27.4458 39.7273 27.3375 39.6331 27.2729C39.2257 26.9904 38.9059 26.6908 38.9882 26.114C39.0227 25.8659 38.7758 25.664 38.5343 25.5782C37.7912 25.3129 37.1862 24.8958 36.8159 24.1805C36.7509 24.0537 36.6341 23.9402 36.4563 23.968L36.4603 23.964Z" fill="#FED05C"/>
<path d="M15.3638 45.6954C16.1029 43.9532 17.191 42.4327 18.4025 40.9954C19.1748 40.0781 19.9723 39.1793 20.8839 38.39C21.5951 38.0561 22.0144 37.3764 22.6328 36.9303C22.9062 36.7336 23.1609 36.496 23.356 36.2109C25.5853 34.2932 28.0229 32.6619 30.5069 31.0965C31.8458 30.2531 33.2099 29.4507 34.6006 28.6957C33.961 27.7085 33.6412 26.58 33.1821 25.5135C33.0348 25.173 32.8941 24.9988 32.496 25.1242C32.2983 25.1862 32.0714 25.1532 31.8565 25.1625C31.3801 25.1809 30.8971 25.0252 30.3941 25.2997C30.7179 24.455 30.4127 23.6473 30.5879 22.8699C30.6303 22.6785 30.4393 22.6455 30.3052 22.5901C29.4971 22.2601 28.6983 21.909 27.8796 21.6081C27.3063 21.3969 26.8804 21.0564 26.623 20.506C26.3761 20.4572 26.2235 20.6367 26.059 20.7568C24.4122 21.9579 22.8106 23.2183 21.266 24.5487C21.0166 24.7626 20.7419 24.946 20.515 25.1862C20.0519 25.6904 19.4694 26.0692 19.0142 26.5826C18.8351 26.7687 18.6506 26.9495 18.4609 27.1238C16.1493 29.3292 14.0567 31.7182 12.3264 34.4067C10.5151 37.2206 9.13638 40.2061 8.75687 43.5718C8.66265 44.4059 8.70644 45.2467 8.73697 46.0848C8.98112 47.9919 9.62735 49.75 10.7181 51.3417C11.7571 52.8569 13.0562 54.1002 14.6339 55.0532C14.8184 55.164 15.0081 55.2617 15.2138 55.3264C15.385 55.4478 15.596 55.4795 15.7764 55.5811C15.945 55.7263 16.1772 55.6933 16.3643 55.787C15.7977 54.9304 15.186 54.1015 14.8343 53.1222C14.545 52.3184 14.338 51.4988 14.3221 50.6396C14.4694 49.1349 14.6671 47.6422 15.2417 46.226C15.308 46.061 15.3359 45.8775 15.3598 45.698L15.3638 45.6954Z" fill="#FED05C"/>
<path d="M19.0744 26.646C19.5693 26.1946 20.0656 25.7445 20.5605 25.2931C20.5168 24.5316 19.8254 23.997 19.0505 24.1251C18.7891 24.1686 18.5423 24.2729 18.2835 24.3257C18.0062 24.3824 17.908 24.265 17.9743 24.0023C18.0393 23.7436 18.1521 23.51 18.3273 23.3041C18.6816 22.891 18.6749 22.854 18.1561 22.6415C17.1927 22.2469 16.2227 21.8708 15.2501 21.4986C15.0603 21.426 14.7525 21.4101 14.7538 21.1633C14.7565 20.8716 15.0683 20.8822 15.2872 20.8347C15.6508 20.7568 15.9693 20.6129 15.9919 20.1932C16.0131 19.7841 15.7835 19.4845 15.4027 19.3723C14.7047 19.1664 14.024 18.8984 13.3141 18.7506C12.5245 18.5856 11.7735 18.8193 11.0516 19.1334C10.6111 19.3248 10.2103 19.5887 9.79631 19.8303C9.41946 20.0507 9.14345 20.308 9.42742 20.8518C8.36851 20.6288 7.51661 20.8993 6.76423 21.5487C6.59305 21.6965 6.42187 21.8906 6.15781 21.8972C5.08563 23.2117 4.17004 24.616 3.41367 26.1418C2.61883 27.7415 2.09734 29.4177 1.67138 31.1348C1.56257 31.5756 1.49224 32.0257 1.40467 32.4705C1.47898 32.6658 1.4803 32.8612 1.40334 33.0552C1.37017 33.1238 1.33832 33.1924 1.30515 33.2611C1.37813 33.5554 1.38078 33.8484 1.30249 34.1427C1.22288 34.4014 1.17511 34.6654 1.2043 34.9373C1.28524 35.3306 1.28392 35.7239 1.2043 36.1159C1.37017 36.6663 1.20164 37.2523 1.38609 37.8C1.66873 37.3381 1.50021 36.8088 1.613 36.3165C1.76958 35.6289 1.79479 34.9149 1.92616 34.2206C2.09867 33.306 2.52064 32.5523 3.3606 32.0745C3.64854 31.9109 3.88739 31.6773 4.15146 31.4793C4.32794 31.3473 4.55883 31.2338 4.7247 31.4542C4.90915 31.6984 4.71143 31.8818 4.523 32.0283C4.33856 32.1709 4.10634 32.2263 3.89934 32.3293C3.22923 32.6592 2.84707 33.1911 2.88024 33.9382C2.91341 34.7076 3.35131 35.2171 4.07715 35.4718C4.42216 35.5933 4.76716 35.7002 5.01398 35.9958C5.19444 36.2109 5.35235 36.1502 5.47443 35.9272C5.55405 35.782 5.61243 35.6276 5.67214 35.4745C6.23875 34.0345 6.83588 32.6064 7.52192 31.2179C7.56438 31.1322 7.575 31.0252 7.70636 30.9593C7.85498 31.1361 7.82712 31.3433 7.7966 31.5466C7.74617 31.8752 7.61348 32.1762 7.46486 32.4718C7.21804 32.9588 6.99379 33.4525 7.02564 34.02C7.0336 34.1678 7.00971 34.3236 6.94469 34.4542C6.5267 35.2936 6.04369 36.0935 5.42666 36.8036C5.25947 36.9963 5.00734 37.0504 4.74992 37.0662C4.26425 37.0966 4.21117 37.1863 4.4142 37.639C4.58935 38.0297 4.78176 38.4125 4.96886 38.7965C6.06094 41.0284 7.00971 43.3315 8.27297 45.4803C8.41097 45.7165 8.48396 46.0504 8.8502 46.0861C8.57286 41.233 10.5474 37.1388 13.2358 33.2954C14.6729 31.2404 16.3355 29.3715 18.1243 27.6121C18.2755 27.463 18.4162 27.3006 18.5608 27.1449C18.5024 27.0499 18.4056 27.0235 18.3061 27.0169C17.2365 26.9416 16.1644 26.9033 15.0922 26.8519C14.7591 26.836 14.5747 27.0485 14.5004 27.3468C14.365 27.8972 14.0744 28.2654 13.4627 28.2998C13.2636 28.3103 13.1363 28.4383 13.0314 28.5967C12.8934 28.8053 12.7196 28.9782 12.5033 29.1088C11.9433 29.4507 11.877 29.4335 11.5784 28.8541C11.4099 28.5281 11.2069 28.4608 10.9667 28.7129C10.4916 29.2118 9.87593 29.3068 9.24828 29.3596C8.76792 29.3992 8.29553 29.452 7.81916 29.6592C7.7276 29.2263 7.82712 28.8317 7.91735 28.441C7.97706 28.1796 8.20795 28.1572 8.42955 28.148C8.8555 28.1308 9.24695 28.0226 9.56277 27.723C9.91441 27.3891 9.86001 27.1713 9.39027 27.0406C8.67769 26.844 7.95185 26.8915 7.17691 26.9363C7.41443 26.4295 7.72892 25.99 7.88815 25.441C8.06066 25.5083 8.04739 25.7749 8.23714 25.7432C8.41761 25.7142 8.48528 25.5399 8.58481 25.4119C8.67636 25.2918 8.78119 25.1875 8.93247 25.1479C9.2244 25.074 9.38761 25.2483 9.33055 25.569C9.17663 26.4256 9.36903 26.7199 10.2196 26.8308C10.4877 26.8664 10.6403 26.9443 10.7132 27.2096C10.7769 27.4392 10.9123 27.5369 11.0543 27.2557C11.1458 27.0736 11.3143 27.0578 11.4643 26.9733C11.9526 26.6975 12.3892 26.4216 13.0075 26.3899C13.3499 26.3728 13.6803 25.9016 13.9895 25.6046C15.1983 24.4497 16.6779 24.5949 17.5378 26.0586C17.9451 26.7529 18.4613 26.7199 19.0757 26.6407L19.0744 26.646Z" fill="#F7B54C"/>
<path d="M36.4607 23.964C36.551 24.059 36.6651 24.1408 36.7261 24.2517C37.091 24.909 37.5701 25.4013 38.3357 25.6098C38.7696 25.7273 39.0483 26.0269 38.8532 26.5483C38.7869 26.7251 38.8904 26.8677 39.0324 26.9732C39.1518 27.0617 39.3163 27.1132 39.396 27.2253C39.8936 27.9315 40.4774 28.4832 41.4116 28.528C41.5151 28.5333 41.6226 28.6759 41.7102 28.7722C41.8256 28.8989 41.807 29.2328 42.1361 28.9966C42.2025 28.9491 42.2595 29.1193 42.3033 29.1985C42.7916 30.0828 43.1433 31.0186 43.3635 32.0032C43.3874 32.1114 43.4525 32.2513 43.3184 32.3107C43.1818 32.3714 43.0464 32.2725 42.984 32.1616C42.846 31.9214 42.7412 31.6614 42.6165 31.4119C42.5461 31.272 42.432 31.1506 42.2662 31.1955C42.0193 31.2614 42.1905 31.4423 42.2078 31.5611C42.2516 31.8686 42.3285 32.1721 42.3843 32.4784C42.4135 32.6381 42.4798 32.8426 42.3431 32.9495C41.953 33.2531 42.0167 33.6649 41.9968 34.0727C41.9809 34.4053 42.0379 34.8475 41.6836 34.99C41.3254 35.1339 40.918 34.9636 40.6367 34.6878C40.293 34.3512 39.9546 34.3288 39.5114 34.4792C38.702 34.7551 38.0133 35.1313 37.6165 35.9443C37.387 36.4141 36.8694 36.5052 36.4077 36.6372C35.8503 36.7969 35.301 36.9883 35.2466 37.6759C35.2108 38.1326 35.0303 38.6817 35.7216 38.8744C35.7734 38.8889 35.8172 38.9628 35.8437 39.0195C35.8623 39.0578 35.8477 39.1132 35.8477 39.2334C35.5398 39.0248 35.2373 38.8295 34.9759 39.2465C34.9241 39.3284 34.7928 39.2386 34.6986 39.2175C34.3403 39.1383 33.9727 39.2426 33.8148 39.5224C33.5892 39.9223 33.2416 39.9091 32.9019 39.9593C32.4772 40.0213 32.0606 39.9962 31.8403 40.5189C31.7116 40.8251 31.2989 40.9307 31.0176 41.1313C30.5001 41.4995 30.4297 41.7635 30.7986 42.2835C31.4077 43.1428 31.685 44.1076 31.7832 45.1371C31.8881 46.2312 32.172 46.5876 33.2203 46.837C33.6224 46.9334 33.8586 47.1498 33.986 47.5207C34.124 47.9246 34.258 48.3311 34.4093 48.731C34.5008 48.9725 34.4942 49.3223 34.9162 49.2616C34.9918 49.251 35.0542 49.3131 35.0237 49.3817C34.8326 49.8093 35.1006 49.8106 35.4138 49.8634C35.7309 49.9176 35.8464 50.2026 35.8543 50.5009C35.8782 51.3628 35.4151 51.9528 34.7397 52.4134C34.6057 52.5045 34.4531 52.5705 34.2792 52.6628C34.6269 52.9295 34.8684 52.68 35.0834 52.5243C35.8225 51.9871 36.4342 51.3206 36.9756 50.5867C37.9549 49.2616 38.5321 47.7702 38.8108 46.1626C38.9647 45.2743 39.3389 44.5048 39.9546 43.8581C40.423 43.3658 40.7189 42.7904 40.9007 42.1489C41.117 41.3847 41.393 40.6548 41.8999 40.0213C42.1958 39.6504 42.2555 39.2465 41.8535 38.8796C41.7367 38.7727 41.6558 38.6328 41.7885 38.4916C42.0459 38.2197 41.9251 37.9491 41.8216 37.6667C41.7195 37.3895 41.6213 37.1137 41.6027 36.8114C41.5735 36.3389 41.6027 35.9232 41.9955 35.5576C42.3192 35.2566 42.4665 34.8118 42.6231 34.3935C42.7651 34.0133 42.8633 33.6108 43.2853 33.3943C43.4604 33.3046 43.4551 33.0498 43.5029 32.8624C43.5613 32.6354 43.6754 32.5668 43.8877 32.6737C43.8452 31.6534 43.5666 30.6781 43.3131 29.6974C43.0146 28.5412 42.509 27.4642 42.0711 26.3595C42.0353 26.2711 42.03 26.1695 42.0114 26.0744C41.8322 26.1457 41.6531 26.2183 41.4488 26.3001C41.3877 25.99 41.6292 25.7933 41.685 25.5425C41.4434 24.8113 41.0347 24.1778 40.5265 23.6037C40.3169 23.6908 40.1059 23.7779 39.8564 23.8808C39.8431 23.5126 40.086 23.2697 40.1868 22.9794C39.7808 22.3709 39.3071 21.8166 38.7869 21.3045C38.629 21.1487 38.5865 20.9349 38.426 20.7937C37.7532 21.4536 37.0711 22.1043 36.4103 22.7748C36.0215 23.1694 36.4103 23.5641 36.4594 23.9587L36.4607 23.964Z" fill="#F7B54C"/>
<path d="M6.15771 21.8998C6.41514 22.078 6.61286 21.8695 6.74821 21.7401C7.53774 20.9891 8.46263 20.745 9.64096 20.9865C9.15397 20.3094 9.5985 20.085 10.0311 19.8343C10.8764 19.3446 11.7203 18.8562 12.7367 18.8391C13.72 18.8219 14.5732 19.3274 15.4955 19.5571C15.7967 19.631 15.9506 19.9451 15.8936 20.2751C15.8352 20.6143 15.5472 20.6763 15.258 20.7159C15.1279 20.7344 14.9939 20.7423 14.8718 20.7859C14.6794 20.8558 14.5095 20.968 14.5082 21.2029C14.5056 21.4326 14.7232 21.4326 14.8612 21.4867C16.0714 21.9671 17.2855 22.437 18.5621 22.9359C18.1374 23.2236 17.8933 23.5932 17.807 24.0525C17.7314 24.4551 17.8429 24.5606 18.2436 24.4749C18.3405 24.4537 18.4347 24.4247 18.5289 24.3957C19.6303 24.0499 20.0894 24.2531 20.5591 25.2932C22.5243 23.6275 24.5081 21.983 26.6233 20.5047C26.5463 19.8871 26.6313 19.3169 27.1209 18.8694C26.8263 18.3481 26.3964 18.0327 25.7807 18.0181C25.4304 18.0102 25.08 18.0076 24.7735 17.8175C24.2175 17.473 23.6138 17.3833 22.9702 17.4136C22.5429 17.4348 22.113 17.44 21.6884 17.4004C21.5981 17.2737 21.7282 17.2196 21.7627 17.1404C21.9126 16.7854 21.8556 16.6574 21.4734 16.6165C20.7661 16.5399 20.1876 16.1466 19.548 15.8853C19.747 15.8523 19.9394 15.814 20.1345 15.8206C21.7693 15.88 23.3988 15.6569 25.0336 15.7216C25.4635 15.7388 25.8815 15.6424 26.3154 15.6596C27.2695 15.6992 28.1267 15.9895 28.9163 16.4977C28.7013 16.4594 28.4757 16.4172 28.2501 16.4726C27.9755 16.5399 27.8706 16.7748 27.7499 16.986C27.5203 17.3899 27.5814 17.6921 28.0086 17.8716C28.3868 18.0313 28.6323 18.2768 28.8035 18.6266C29.7615 18.8457 30.7116 19.107 31.6883 19.2403C31.6378 18.8708 31.6126 18.4893 31.1655 18.3494C31.0752 18.3217 31.0394 18.2465 31.0474 18.158C31.058 18.0472 31.1363 17.9838 31.2358 17.9561C31.5715 17.8611 31.8555 17.9244 32.0479 18.2372C32.1328 18.3758 32.1819 18.5725 32.3517 18.6068C32.7711 18.6899 32.8149 19.0028 32.852 19.3314C33.477 18.8457 33.9892 18.2465 34.5479 17.6935C33.8698 17.3199 33.201 16.9332 32.515 16.5755C29.0357 14.766 25.3202 13.9847 21.415 14.2183C16.4841 14.5139 12.1542 16.3129 8.43874 19.569C7.61736 20.2896 6.89285 21.096 6.15904 21.8985L6.15771 21.8998Z" fill="#FED05C"/>
<path d="M8.84845 46.0913C7.99522 45.0249 7.47638 43.7723 6.88589 42.5634C6.07645 40.9083 5.30151 39.236 4.51595 37.569C4.46155 37.4542 4.36601 37.3473 4.4098 37.1652C5.20464 37.3539 5.67836 36.9131 6.02337 36.2835C6.25426 35.8638 6.50505 35.4599 6.79698 35.0811C7.00664 34.8092 7.14863 34.4938 7.13403 34.1717C7.10351 33.4762 7.40207 32.8981 7.68471 32.3042C7.94347 31.7591 8.11597 31.2034 7.70196 30.5725C6.7731 32.3833 6.02868 34.2166 5.27497 36.1278C4.98437 35.6487 4.56505 35.4903 4.12052 35.353C3.44378 35.1445 3.01915 34.5981 2.98996 33.95C2.96076 33.3006 3.33762 32.7212 3.97588 32.4348C4.20147 32.3332 4.44828 32.2632 4.64732 32.1247C4.90077 31.9491 5.10777 31.6878 4.88882 31.3737C4.66988 31.0595 4.36733 31.1704 4.09398 31.3288C2.48571 32.2606 1.63116 33.6266 1.59268 35.5048C1.57675 36.2716 1.32596 37.0253 1.387 37.804C1.97351 42.7244 4.00906 46.9638 7.49894 50.4891C9.63533 52.647 12.1499 54.2625 14.9962 55.3541C15.0573 55.3778 15.1249 55.3804 15.19 55.3923C15.2921 55.4332 15.3107 55.3831 15.2948 55.296C12.5878 53.7742 10.6053 51.6241 9.49866 48.706C9.17754 47.8586 9.02228 46.973 8.84712 46.0913H8.84845Z" fill="#FED05C"/>
<path d="M1.20389 36.1185C1.35649 35.7252 1.35914 35.3319 1.20389 34.9386C1.20389 35.3319 1.20389 35.7252 1.20389 36.1185Z" fill="#D7E8F4"/>
<path d="M1.30315 34.144C1.45973 33.851 1.45708 33.5567 1.3058 33.2623C1.3058 33.5567 1.30448 33.8497 1.30315 34.144Z" fill="#D4E5F1"/>
<path d="M15.2933 55.296C15.2588 55.3277 15.223 55.3607 15.1884 55.3924C15.3596 55.5362 15.5587 55.5917 15.7803 55.5798C15.6622 55.4095 15.4671 55.3699 15.2933 55.296Z" fill="#8BBACA"/>
<path d="M1.40206 33.0577C1.54935 32.8637 1.54935 32.6684 1.40339 32.473C1.40339 32.6684 1.40339 32.8624 1.40206 33.0577Z" fill="#D6E6F1"/>
<path d="M28.8021 18.6279C28.8831 18.2082 28.6827 17.9785 28.2926 17.8611C27.9927 17.7713 27.6212 17.6895 27.7313 17.2618C27.8733 16.7088 28.201 16.5056 28.6814 16.5821C28.8658 16.6112 29.0569 16.7458 29.2334 16.5491C28.132 15.7533 26.9232 15.4497 25.5617 15.5434C23.9972 15.6503 22.4235 15.6464 20.8537 15.6807C20.2924 15.6925 19.7324 15.6952 19.1605 15.8338C19.958 16.1307 20.6374 16.7352 21.545 16.7418C21.8197 16.7431 21.7693 16.8659 21.7083 17.0098C21.6286 17.1932 21.4561 17.3028 21.2637 17.4334C21.6684 17.642 22.0546 17.5786 22.4235 17.5575C23.3099 17.506 24.1764 17.5034 24.9394 18.0577C25.027 18.1211 25.165 18.1686 25.2658 18.1501C26.0381 18.0062 26.5954 18.3903 27.1196 18.8681C27.6371 18.4972 28.2063 18.4748 28.7995 18.6266L28.8021 18.6279Z" fill="#F7B54C"/>
<path d="M38.4277 20.799C38.4078 21.0854 38.5551 21.2477 38.7661 21.4457C39.1854 21.8377 39.5331 22.3049 39.8993 22.7524C39.9829 22.8553 40.036 22.9754 40.1886 22.9847C40.3093 22.8091 40.3983 22.5914 40.5588 22.466C41.1068 22.0383 40.9649 21.6305 40.6278 21.1461C40.2815 20.6512 40.0095 20.1048 39.7003 19.5715C39.2677 19.9886 38.8484 20.3938 38.4291 20.799H38.4277Z" fill="#FEFEFE"/>
<path d="M40.5281 23.6078C40.9143 24.2545 41.3004 24.8999 41.6865 25.5466C41.7754 25.408 41.8378 25.2378 41.9599 25.1375C42.6101 24.6043 42.4004 24.0935 42.005 23.5127C41.591 22.9043 41.6268 22.8818 41.027 23.287C40.8638 23.3979 40.694 23.5009 40.5268 23.6064L40.5281 23.6078Z" fill="#FDFDFD"/>
<path d="M32.852 19.3315C33.063 18.9236 33.0046 18.628 32.4964 18.5527C32.3133 18.525 32.2628 18.4102 32.2018 18.269C32.0001 17.8057 31.4454 17.6275 31.0168 17.8651C30.8655 17.9496 30.8828 18.0776 30.8788 18.203C30.8762 18.3112 30.8642 18.5131 30.9836 18.4894C31.4813 18.3904 31.4069 18.8114 31.5436 19.0424C31.5848 19.1124 31.6392 19.1757 31.6869 19.2417C32.0784 19.2351 32.4433 19.5611 32.8507 19.3315H32.852Z" fill="#F7B54C"/>
<path d="M15.3643 45.6953C14.6185 47.2593 14.2164 48.8946 14.3266 50.6368C14.7326 49.247 15.079 47.8427 15.3749 46.4252C15.424 46.1929 15.3709 45.9382 15.3643 45.6953Z" fill="#F7B54C"/>
<path d="M23.3564 36.2109C22.47 36.8669 21.6646 37.6153 20.8843 38.3913C21.3262 38.4454 21.7004 38.2725 21.9963 37.9809C22.5271 37.4542 23.0313 36.8986 23.3564 36.2123V36.2109Z" fill="#F7B54C"/>
<path d="M12.1209 48.0711C12.2284 46.0848 12.7486 44.1947 13.5076 42.3681C14.4577 40.0821 15.6785 37.9439 17.2098 35.9945C18.6456 34.1691 20.2485 32.4916 21.9125 30.8682C23.8247 29.0019 25.9027 27.3429 28.0855 25.8052C28.3681 25.6059 28.6468 25.4014 28.9281 25.2021C29.3143 24.9275 29.431 24.3996 29.1829 24.0419C28.9162 23.6578 28.4371 23.6037 28.0125 23.9258C26.6232 24.979 25.2684 26.0692 23.968 27.2333C22.8109 28.2694 21.6949 29.3477 20.6466 30.4828C17.9065 33.4538 15.3932 36.5977 13.7398 40.3236C12.872 42.2796 12.2483 44.3069 12.0082 46.4477C11.91 47.3201 11.9604 48.186 11.9299 49.0544C12.1554 49.0518 12.0573 48.8789 12.0718 48.7746C12.105 48.541 12.0214 48.2995 12.1236 48.0698L12.1209 48.0711Z" fill="#4CC68F"/>
<path d="M19.0742 26.646C18.3603 26.5998 17.7658 26.4282 17.4089 25.6838C17.239 25.3301 16.7932 25.1044 16.4031 24.9117C15.5618 24.4959 14.9779 24.5567 14.264 25.1717C13.8513 25.5267 13.4519 25.8963 13.0538 26.2672C12.8919 26.419 12.7407 26.5311 12.5576 26.316C12.3572 26.0784 12.2258 26.188 12.04 26.3596C11.8038 26.5787 11.7189 27.0828 11.1669 26.811C11.0355 26.7463 11.0395 27.1739 10.8564 27.3587C10.806 26.9205 10.7051 26.6671 10.1385 26.6816C9.41931 26.7014 9.20568 26.2579 9.46708 25.5888C9.54007 25.4027 9.57722 25.2377 9.40074 25.1004C9.20037 24.9447 8.98938 24.9275 8.75318 25.0476C8.47983 25.1862 8.43604 25.4937 8.20515 25.7379C8.12421 25.5017 8.05654 25.301 7.95834 25.0133C7.76991 25.4383 7.63191 25.7828 7.46472 26.1114C7.29487 26.4454 7.09715 26.7648 6.88351 27.1409C7.72347 26.9957 8.51168 26.972 9.29193 27.1502C9.43922 27.1832 9.66745 27.1607 9.69797 27.3521C9.72053 27.496 9.54272 27.5923 9.42993 27.6847C9.12208 27.9342 8.76115 28.0384 8.36704 28.0213C7.95967 28.0028 7.77522 28.1704 7.73011 28.5888C7.68366 29.0125 7.65049 29.4335 7.62262 29.9377C8.33652 29.4361 9.14596 29.5734 9.89436 29.4124C10.3362 29.3174 10.7688 29.2025 11.0395 28.8C11.2001 28.5611 11.3142 28.6192 11.4243 28.833C11.4323 28.8475 11.4363 28.8646 11.4456 28.8778C11.5942 29.089 11.4748 29.5325 11.7282 29.547C12.113 29.5694 12.4726 29.3187 12.7924 29.0758C12.819 29.056 12.8468 29.0349 12.8641 29.0085C13.1069 28.6284 13.4055 28.4027 13.8978 28.3393C14.3091 28.2866 14.5321 27.8906 14.5944 27.4696C14.6568 27.0525 14.8718 26.9641 15.2871 26.9971C16.3739 27.0828 17.4646 27.1053 18.5541 27.1541C18.7491 27.0103 18.9322 26.8532 19.0702 26.6499L19.0742 26.646Z" fill="#FED05C"/>
<path d="M12.1215 48.071C11.872 48.3627 12.1785 48.7626 11.9291 49.0557C11.9954 49.6813 12.0617 50.3056 12.1281 50.9312C12.3139 50.9417 12.282 50.8441 12.2263 50.7345C12.2064 49.8462 12.0671 48.9619 12.1215 48.071Z" fill="#EBB52E"/>
<path d="M12.2256 50.7346C12.2203 50.8138 12.207 50.889 12.1274 50.9313C12.2402 51.3338 12.2826 51.7588 12.5215 52.1191C12.4737 51.6466 12.3569 51.19 12.2256 50.7346Z" fill="#F2C132"/>
<path d="M12.5236 52.0571C12.5197 52.3 12.5077 52.4834 12.6802 52.6511C12.7373 52.4227 12.6086 52.2762 12.5236 52.0571Z" fill="#F8CC36"/>
<path d="M5.36512 28.1163C5.14485 27.6913 5.45403 27.4155 5.74197 27.0974C6.00736 26.8057 6.19977 26.4507 6.07769 26.0191C6.02462 25.829 5.92377 25.6799 5.71544 25.6693C5.52568 25.6601 5.51905 25.8277 5.45137 25.961C5.31868 26.2197 5.17271 26.4454 5.40228 26.7252C5.54426 26.8981 5.37839 27.001 5.26428 27.0789C5.04798 27.2281 4.78923 27.327 4.59682 27.4999C4.38053 27.6926 4.04878 27.9078 4.48137 28.2364C4.68174 28.3895 4.49199 28.5255 4.39645 28.6469C4.29693 28.7736 4.21864 28.9003 4.3646 29.0336C4.49199 29.1498 4.64592 29.1379 4.77463 29.0389C5.0639 28.8158 5.34787 28.5835 5.36645 28.1163H5.36512Z" fill="#FED05C"/>
<path d="M23.1582 18.8509C22.7336 18.6094 22.3581 18.4655 21.9653 18.3837C21.8021 18.3494 21.5566 18.3573 21.5168 18.5606C21.4836 18.7322 21.6853 18.8285 21.8432 18.8721C22.2546 18.9842 22.6672 19.0001 23.1569 18.8509H23.1582Z" fill="#F7B54C"/>
<path d="M7.01681 47.7887C7.27292 47.7676 7.59006 47.8428 7.70019 47.5221C7.79573 47.2423 7.61527 47.0007 7.42153 46.8291C7.07653 46.5243 6.85891 46.1996 6.96639 45.7152C7.01681 45.4895 6.89739 45.3456 6.66517 45.2849C6.1397 45.1463 5.77877 44.8546 5.76152 44.266C5.75886 44.1551 5.69915 44.0772 5.59299 44.0509C5.46295 44.0192 5.43509 44.1327 5.38201 44.2132C5.02639 44.7622 5.03037 44.8322 5.53328 45.2968C5.97648 45.7059 5.88758 46.2656 5.95525 46.7711C6.05212 47.4957 6.33741 47.7966 7.01681 47.7887Z" fill="#F7B54C"/>
</g>
<defs>
<clipPath id="clip0_1_3254">
<rect width="50.955" height="56" fill="white" transform="matrix(-1 0 0 1 50.9551 0.869263)"/>
</clipPath>
</defs>
</svg>
