<svg width="32" height="33" viewBox="0 0 32 33" fill="none" xmlns="http://www.w3.org/2000/svg">
<path d="M25.0006 8.12561V21.1256C25.0006 21.3908 24.8952 21.6452 24.7077 21.8327C24.5201 22.0203 24.2658 22.1256 24.0006 22.1256C23.7353 22.1256 23.481 22.0203 23.2934 21.8327C23.1059 21.6452 23.0006 21.3908 23.0006 21.1256V10.5394L8.70806 24.8331C8.52042 25.0208 8.26592 25.1262 8.00056 25.1262C7.73519 25.1262 7.4807 25.0208 7.29306 24.8331C7.10542 24.6455 7 24.391 7 24.1256C7 23.8602 7.10542 23.6058 7.29306 23.4181L21.5868 9.12561H11.0006C10.7353 9.12561 10.481 9.02025 10.2934 8.83272C10.1059 8.64518 10.0006 8.39083 10.0006 8.12561C10.0006 7.86039 10.1059 7.60604 10.2934 7.4185C10.481 7.23097 10.7353 7.12561 11.0006 7.12561H24.0006C24.2658 7.12561 24.5201 7.23097 24.7077 7.4185C24.8952 7.60604 25.0006 7.86039 25.0006 8.12561Z" fill="#6B6B6B"/>
</svg>
