<svg width="57" height="57" viewBox="0 0 57 57" fill="none" xmlns="http://www.w3.org/2000/svg">
<rect x="-0.00244141" y="0.966675" width="56.1225" height="56" rx="28" fill="#EBD986"/>
<path d="M23.113 24.2476C20.9591 26.4018 20.4464 30.0809 21.1131 31.7476C22.1129 36.2476 26.6134 37.2476 29.6134 36.7476C32.6134 36.2476 35.6134 32.7475 37.1134 29.7475C38.6134 26.7475 36.1134 18.2475 35.6134 19.2475C35.2134 20.0475 31.4467 21.5809 29.6134 22.2475C28.6133 22.5809 24.6128 22.7476 23.113 24.2476Z" fill="white"/>
<path d="M18.531 37.6664C18.531 34.6664 20.381 32.3064 23.611 31.6664C26.031 31.1864 28.531 29.6664 29.531 28.6664M27.531 36.6664C25.7751 36.6717 24.0813 36.0169 22.7855 34.8318C21.4898 33.6467 20.6868 32.0179 20.5357 30.2685C20.3847 28.519 20.8967 26.7767 21.9702 25.3871C23.0436 23.9975 24.6001 23.0621 26.331 22.7664C32.031 21.6664 33.531 21.1464 35.531 18.6664C36.531 20.6664 37.531 22.8464 37.531 26.6664C37.531 32.1664 32.751 36.6664 27.531 36.6664Z" stroke="black" stroke-width="1.5" stroke-linecap="round" stroke-linejoin="round"/>
<path d="M29.5002 40.1663C31.3336 40.4996 35.0002 40.1663 37.5002 36.6663" stroke="black" stroke-width="1.5" stroke-linecap="round"/>
</svg>
