<svg width="58" height="59" viewBox="0 0 58 59" fill="none" xmlns="http://www.w3.org/2000/svg">
<rect x="-0.00244141" y="0.966797" width="57.0668" height="57.0668" rx="28.5334" fill="#EBD986"/>
<path d="M32.5 33H24L22 35.5L21.5 39.5H36V37.5L32.5 33Z" fill="white"/>
<path d="M26.5308 27.5002L21.2508 38.0502C21.1737 38.2032 21.1372 38.3735 21.1448 38.5446C21.1524 38.7158 21.2038 38.8821 21.2941 39.0276C21.3845 39.1732 21.5107 39.2931 21.6607 39.3758C21.8107 39.4586 21.9795 39.5014 22.1508 39.5002H34.9108C35.0821 39.5014 35.2508 39.4586 35.4008 39.3758C35.5508 39.2931 35.677 39.1732 35.7674 39.0276C35.8577 38.8821 35.9092 38.7158 35.9168 38.5446C35.9244 38.3735 35.8879 38.2032 35.8108 38.0502L34.5388 35.5082M26.5308 19.5002V21.8432M30.5308 19.5002V25.8432M25.0308 19.5002H32.0308M23.5308 33.5002H32.5308M18.5308 19.5002L38.5308 39.5002" stroke="black" stroke-width="1.5" stroke-linecap="round" stroke-linejoin="round"/>
</svg>
