<svg width="52" height="53" viewBox="0 0 52 53" fill="none" xmlns="http://www.w3.org/2000/svg">
<rect x="-0.00219727" y="0.966797" width="52" height="52" rx="26" fill="#EBD986"/>
<path d="M33.9978 27.9655C33.9978 32.9655 30.4978 35.4655 26.3378 36.9155C26.12 36.9894 25.8833 36.9858 25.6678 36.9055C21.4978 35.4655 17.9978 32.9655 17.9978 27.9655V20.9655C17.9978 20.7003 18.1032 20.446 18.2907 20.2584C18.4782 20.0709 18.7326 19.9655 18.9978 19.9655C20.9978 19.9655 23.4978 18.7655 25.2378 17.2455C25.4497 17.0645 25.7192 16.9651 25.9978 16.9651C26.2764 16.9651 26.5459 17.0645 26.7578 17.2455C28.5078 18.7755 30.9978 19.9655 32.9978 19.9655C33.263 19.9655 33.5174 20.0709 33.7049 20.2584C33.8924 20.446 33.9978 20.7003 33.9978 20.9655V27.9655Z" fill="white"/>
<path d="M22.9978 26.9655L24.9978 28.9655L28.9978 24.9655" fill="white"/>
<path d="M22.9978 26.9655L24.9978 28.9655L28.9978 24.9655M33.9978 27.9655C33.9978 32.9655 30.4978 35.4655 26.3378 36.9155C26.12 36.9894 25.8833 36.9858 25.6678 36.9055C21.4978 35.4655 17.9978 32.9655 17.9978 27.9655V20.9655C17.9978 20.7003 18.1032 20.446 18.2907 20.2584C18.4782 20.0709 18.7326 19.9655 18.9978 19.9655C20.9978 19.9655 23.4978 18.7655 25.2378 17.2455C25.4497 17.0645 25.7192 16.9651 25.9978 16.9651C26.2764 16.9651 26.5459 17.0645 26.7578 17.2455C28.5078 18.7755 30.9978 19.9655 32.9978 19.9655C33.263 19.9655 33.5174 20.0709 33.7049 20.2584C33.8924 20.446 33.9978 20.7003 33.9978 20.9655V27.9655Z" stroke="black" stroke-width="1.5" stroke-linecap="round" stroke-linejoin="round"/>
<path d="M28.9998 39.5C32.4998 39 35.9998 35 36.4998 34C36.9998 33 37.4998 31.5 37.4998 31" stroke="black" stroke-width="1.5" stroke-linecap="round"/>
</svg>
