<svg width="56" height="57" viewBox="0 0 56 57" fill="none" xmlns="http://www.w3.org/2000/svg">
<rect x="-0.00244141" y="0.966675" width="56" height="56" rx="28" fill="#EBD986"/>
<path d="M27.9822 17.1655L29.7295 17.8645C29.846 18.0974 30.2887 18.843 31.1274 19.9612C31.9661 21.0795 31.7099 23.2229 31.4769 24.1548L40.563 30.7946V32.8914L30.778 30.4452L30.079 36.7355L31.8263 38.4829L32.5253 39.8807L31.8263 41.2786L27.9822 39.8807L23.7887 41.2786V39.1818L26.2349 36.3861L25.1865 30.7946L15.751 32.542V30.7946L16.2974 29.9649L20.294 27.6495L24.837 24.5043C24.4876 24.1548 23.9983 22.8967 24.837 20.6602C25.6758 18.4236 27.2833 17.3985 27.9822 17.1655Z" fill="white"/>
<path d="M40.7349 30.043L31.891 23.992L31.9726 23.2895C32.2027 21.3333 31.5842 19.3675 30.2752 17.8955L29.6759 17.2218C29.2492 16.7424 28.6378 16.4667 27.9977 16.4667C27.3576 16.4667 26.7439 16.7424 26.3195 17.2218L25.7202 17.8955C24.4112 19.3675 23.7927 21.3333 24.0229 23.2895L24.1044 23.992L15.2606 30.043C15.1311 30.1317 15.052 30.2804 15.052 30.4386V32.836C15.052 32.9798 15.1167 33.1165 15.227 33.2076C15.3133 33.2771 15.4212 33.3154 15.5315 33.3154C15.5626 33.3154 15.5938 33.313 15.625 33.3059L24.9794 31.4359L25.574 36.4991L23.342 38.7311C23.2533 38.8198 23.203 38.9421 23.203 39.0691V40.987C23.203 41.1405 23.2773 41.2867 23.402 41.3754C23.5266 41.4665 23.6872 41.4905 23.8335 41.4425L27.9976 40.0545L32.1617 41.4425C32.2121 41.4593 32.2624 41.4665 32.3128 41.4665C32.4111 41.4665 32.5094 41.4353 32.5933 41.3754C32.7179 41.2843 32.7923 41.1404 32.7923 40.987V39.0691C32.7923 38.9421 32.7419 38.8198 32.6508 38.7311L30.4189 36.4991L31.0686 30.9827L40.3487 33.3033C40.3871 33.3129 40.4255 33.3177 40.4662 33.3177C40.5717 33.3177 40.6772 33.2817 40.7611 33.217C40.8762 33.1235 40.9433 32.9845 40.9433 32.8358V30.4384C40.9433 30.2802 40.8643 30.1317 40.7349 30.043ZM16.0108 32.251V30.6903L24.2314 25.0661L24.8691 30.4795L16.0108 32.251ZM31.8334 39.2681V40.3229L28.1485 39.0955C28.0982 39.0787 28.0478 39.0715 27.9975 39.0715C27.9472 39.0715 27.8944 39.0787 27.8465 39.0955L24.1616 40.3229V39.2681L26.4176 37.0121C26.5207 36.909 26.571 36.7628 26.5542 36.6165L24.9744 23.1793C24.7754 21.4939 25.31 19.8013 26.4368 18.5331L27.0361 17.8594C27.2806 17.5837 27.6306 17.4279 27.9974 17.4279C28.3642 17.4279 28.7167 17.5861 28.9588 17.8594L29.5581 18.5331C30.6849 19.8013 31.2171 21.4938 31.0205 23.1793L29.4407 36.6165C29.4239 36.7628 29.4742 36.9066 29.5773 37.0121L31.8334 39.2681ZM39.9843 32.2222L31.181 30.0214L31.7635 25.0683L39.9841 30.69L39.9843 32.2222ZM29.774 21.6667C29.6805 21.7602 29.5582 21.8081 29.436 21.8081C29.3137 21.8081 29.1914 21.7602 29.0979 21.6667C28.8821 21.4509 28.5849 21.3286 28.2804 21.3286H27.7194C27.4149 21.3286 27.1153 21.4533 26.9019 21.6667C26.7149 21.8537 26.4104 21.8537 26.2235 21.6667C26.0365 21.4797 26.0365 21.1752 26.2235 20.9882C26.6238 20.5879 27.1536 20.3673 27.7194 20.3673H28.2804C28.8462 20.3673 29.3784 20.5879 29.7764 20.9882C29.9634 21.1776 29.9634 21.4797 29.774 21.6667ZM18.8874 35.7127V39.0692C18.8874 39.3329 18.6716 39.5487 18.4079 39.5487C18.1442 39.5487 17.9284 39.3329 17.9284 39.0692V35.7127C17.9284 35.449 18.1442 35.2333 18.4079 35.2333C18.6716 35.2333 18.8874 35.449 18.8874 35.7127ZM38.0664 35.7127V39.0692C38.0664 39.3329 37.8506 39.5487 37.5869 39.5487C37.3232 39.5487 37.1074 39.3329 37.1074 39.0692V35.7127C37.1074 35.449 37.3232 35.2333 37.5869 35.2333C37.8506 35.2333 38.0664 35.449 38.0664 35.7127Z" fill="black" stroke="black" stroke-width="0.25"/>
</svg>
