<svg width="30" height="31" viewBox="0 0 30 31" fill="none" xmlns="http://www.w3.org/2000/svg">
<path d="M25.1944 10.059C25.1821 9.78319 25.1741 9.50718 25.1704 9.2311C25.155 8.19399 24.3391 7.34763 23.3035 7.28978C20.1362 7.11285 17.6592 6.05933 15.5669 4.02C15.2168 3.69906 14.6917 3.69906 14.3416 4.02C12.2493 6.05933 9.77232 7.11285 6.60506 7.28978C5.56946 7.34763 4.75355 8.19399 4.73815 9.23105C4.73442 9.50715 4.72643 9.78317 4.71419 10.059C4.59779 16.1709 4.42329 24.5475 14.5892 28.0923C14.6379 28.1093 14.6877 28.1228 14.7383 28.1329L14.7388 28.133C14.881 28.1614 15.0275 28.1614 15.1698 28.133C15.2205 28.1229 15.2709 28.1092 15.3198 28.0921C25.4562 24.5473 25.3108 16.1999 25.1944 10.059Z" stroke="#010101" stroke-width="1.25" stroke-miterlimit="10"/>
<path d="M20.6476 15.9668C20.6476 19.1114 18.0984 21.6606 14.9538 21.6606C11.8092 21.6606 9.26001 19.1114 9.26001 15.9668C9.26001 12.8222 11.8092 10.273 14.9538 10.273C18.0984 10.273 20.6476 12.8222 20.6476 15.9668Z" stroke="#010101" stroke-width="1.25" stroke-miterlimit="10"/>
<path d="M17.3461 14.5004L13.8113 18.0352" stroke="#010101" stroke-width="1.25" stroke-miterlimit="10" stroke-linecap="round"/>
<path d="M12.4604 16.6843L13.8113 18.0352" stroke="#010101" stroke-width="1.25" stroke-miterlimit="10" stroke-linecap="round"/>
</svg>
