<svg width="30" height="31" viewBox="0 0 30 31" fill="none" xmlns="http://www.w3.org/2000/svg">
<path d="M20.6766 21.8633H12.1768" stroke="#010101" stroke-width="1.5" stroke-miterlimit="10" stroke-linecap="round" stroke-linejoin="round"/>
<path d="M25.8517 21.8633H27.6561V16.3846L23.1373 11.7155H19.4397V21.8135" stroke="#010101" stroke-width="1.5" stroke-miterlimit="10" stroke-linecap="round" stroke-linejoin="round"/>
<path d="M27.6562 16.3848H19.4395" stroke="#010101" stroke-width="1.5" stroke-miterlimit="10" stroke-linecap="round" stroke-linejoin="round"/>
<path d="M21.6248 19.9581C22.5879 18.9951 24.1491 18.9951 25.1122 19.9581C26.0752 20.9212 26.0752 22.4826 25.1122 23.4457C24.1491 24.4087 22.5879 24.4087 21.6248 23.4457C20.6618 22.4826 20.6618 20.9212 21.6248 19.9581Z" stroke="#010101" stroke-width="1.5" stroke-miterlimit="10" stroke-linecap="round" stroke-linejoin="round"/>
<path d="M4.83081 7.52908V21.8545H7.05584" stroke="#010101" stroke-width="1.5" stroke-miterlimit="10" stroke-linecap="round" stroke-linejoin="round"/>
<path d="M19.4619 11.7222V7.52917H4.83081" stroke="#010101" stroke-width="1.5" stroke-miterlimit="10" stroke-linecap="round" stroke-linejoin="round"/>
<path d="M10.2964 7.52881H4.83081" stroke="#010101" stroke-width="1.5" stroke-miterlimit="10" stroke-linecap="round" stroke-linejoin="round"/>
<path d="M10.2964 10.6807H3.44678" stroke="#010101" stroke-width="1.5" stroke-miterlimit="10" stroke-linecap="round" stroke-linejoin="round"/>
<path d="M9.71867 13.8325H2.34375" stroke="#010101" stroke-width="1.5" stroke-miterlimit="10" stroke-linecap="round" stroke-linejoin="round"/>
<path d="M7.88023 19.9581C8.84326 18.9951 10.4046 18.9951 11.3676 19.9581C12.3306 20.9212 12.3306 22.4826 11.3676 23.4457C10.4046 24.4087 8.84326 24.4087 7.88023 23.4457C6.9172 22.4826 6.9172 20.9212 7.88023 19.9581Z" stroke="#010101" stroke-width="1.5" stroke-miterlimit="10" stroke-linecap="round" stroke-linejoin="round"/>
</svg>
