<svg width="17" height="17" viewBox="0 0 17 17" fill="none" xmlns="http://www.w3.org/2000/svg">
<path d="M8.12785 0.428261C8.2113 0.024034 8.7887 0.0240347 8.87215 0.428262L10.0751 6.25519C10.1058 6.40375 10.2219 6.51984 10.3704 6.55051L16.1973 7.75346C16.6016 7.83691 16.6016 8.41431 16.1973 8.49776L10.3704 9.70071C10.2219 9.73138 10.1058 9.84747 10.0751 9.99604L8.87215 15.823C8.7887 16.2272 8.2113 16.2272 8.12785 15.823L6.9249 9.99604C6.89423 9.84747 6.77814 9.73138 6.62957 9.70071L0.80265 8.49776C0.398423 8.41431 0.398425 7.83691 0.802652 7.75346L6.62957 6.55051C6.77814 6.51984 6.89423 6.40375 6.9249 6.25519L8.12785 0.428261Z" fill="#010101"/>
</svg>
