<svg width="30" height="31" viewBox="0 0 30 31" fill="none" xmlns="http://www.w3.org/2000/svg">
<path d="M9.13935 10.1417L7.67881 8.68109C6.87211 7.87444 5.56423 7.87439 4.75748 8.68109L4.0253 9.41332C2.67471 10.7638 2.42312 12.8544 3.41691 14.4855C4.63215 16.4797 6.54403 19.2316 9.13945 21.827C11.7358 24.4233 14.4887 26.3357 16.4831 27.5508C18.1135 28.5441 20.2033 28.2909 21.5531 26.9411L22.2853 26.209C23.092 25.4023 23.092 24.0943 22.2853 23.2876L20.8247 21.827C19.7987 20.8011 18.808 21.1656 18.0054 21.786C17.2206 22.3925 16.1554 22.4488 15.3755 21.8363C14.2889 20.9829 13.1607 20.0056 12.0607 18.9057C10.9573 17.8022 9.97739 16.6704 9.1221 15.5807C8.51515 14.8074 8.56044 13.7498 9.1584 12.9696C9.78316 12.1545 10.1526 11.1549 9.13935 10.1417Z" stroke="#010101" stroke-width="1.5" stroke-miterlimit="10" stroke-linecap="round" stroke-linejoin="round"/>
<path d="M10.2122 6.20197C12.0085 4.69016 14.3274 3.7793 16.859 3.7793C22.5632 3.7793 27.1874 8.40347 27.1874 14.1077C27.1874 16.6397 26.2762 18.959 24.7639 20.7554" stroke="#010101" stroke-width="1.5" stroke-miterlimit="10" stroke-linecap="round" stroke-linejoin="round"/>
<path d="M16.8594 9.97632V14.1077L18.925 16.1733" stroke="#010101" stroke-width="1.5" stroke-miterlimit="10" stroke-linecap="round" stroke-linejoin="round"/>
</svg>
